<?xml version="1.0" encoding="utf-8"?><!-- Uploaded to: SVG Repo, www.svgrepo.com, Generator: SVG Repo Mixer Tools -->
<svg width="48px" height="48px" viewBox="0 0 32 32" fill="none" xmlns="http://www.w3.org/2000/svg">
<path d="M27 6.47998H5C3.34315 6.47998 2 7.82313 2 9.47998V24.48C2 26.1368 3.34315 27.48 5 27.48H27C28.6569 27.48 30 26.1368 30 24.48V9.47998C30 7.82313 28.6569 6.47998 27 6.47998Z" fill="#9FA8DA"/>
<path d="M30 9.47998V11.48H3H2V9.47998C2 8.68433 2.31607 7.92127 2.87868 7.35866C3.44129 6.79605 4.20435 6.47998 5 6.47998H27C27.7956 6.47998 28.5587 6.79605 29.1213 7.35866C29.6839 7.92127 30 8.68433 30 9.47998Z" fill="#1A237E"/>
<path d="M11 8.47998C10.7348 8.47998 10.4804 8.37462 10.2929 8.18709C10.1054 7.99955 10 7.7452 10 7.47998V5.47998H8V7.47998C8 7.7452 7.89464 7.99955 7.70711 8.18709C7.51957 8.37462 7.26522 8.47998 7 8.47998C6.73478 8.47998 6.48043 8.37462 6.29289 8.18709C6.10536 7.99955 6 7.7452 6 7.47998V4.47998C6 4.21476 6.10536 3.96041 6.29289 3.77287C6.48043 3.58534 6.73478 3.47998 7 3.47998H11C11.2652 3.47998 11.5196 3.58534 11.7071 3.77287C11.8946 3.96041 12 4.21476 12 4.47998V7.47998C12 7.7452 11.8946 7.99955 11.7071 8.18709C11.5196 8.37462 11.2652 8.47998 11 8.47998Z" fill="#283593"/>
<path d="M25 8.47998C24.7348 8.47998 24.4804 8.37462 24.2929 8.18709C24.1054 7.99955 24 7.7452 24 7.47998V5.47998H22V7.47998C22 7.7452 21.8946 7.99955 21.7071 8.18709C21.5196 8.37462 21.2652 8.47998 21 8.47998C20.7348 8.47998 20.4804 8.37462 20.2929 8.18709C20.1054 7.99955 20 7.7452 20 7.47998V4.47998C20 4.21476 20.1054 3.96041 20.2929 3.77287C20.4804 3.58534 20.7348 3.47998 21 3.47998H25C25.2652 3.47998 25.5196 3.58534 25.7071 3.77287C25.8946 3.96041 26 4.21476 26 4.47998V7.47998C26 7.7452 25.8946 7.99955 25.7071 8.18709C25.5196 8.37462 25.2652 8.47998 25 8.47998Z" fill="#1A237E"/>
<path d="M9 20.48H8C7.44772 20.48 7 20.9277 7 21.48V22.48C7 23.0323 7.44772 23.48 8 23.48H9C9.55228 23.48 10 23.0323 10 22.48V21.48C10 20.9277 9.55228 20.48 9 20.48Z" fill="#0D47A1"/>
<path d="M14 15.48H13C12.4477 15.48 12 15.9277 12 16.48V17.48C12 18.0323 12.4477 18.48 13 18.48H14C14.5523 18.48 15 18.0323 15 17.48V16.48C15 15.9277 14.5523 15.48 14 15.48Z" fill="#0D47A1"/>
<path d="M14 20.48H13C12.4477 20.48 12 20.9277 12 21.48V22.48C12 23.0323 12.4477 23.48 13 23.48H14C14.5523 23.48 15 23.0323 15 22.48V21.48C15 20.9277 14.5523 20.48 14 20.48Z" fill="#0D47A1"/>
<path d="M19 15.48H18C17.4477 15.48 17 15.9277 17 16.48V17.48C17 18.0323 17.4477 18.48 18 18.48H19C19.5523 18.48 20 18.0323 20 17.48V16.48C20 15.9277 19.5523 15.48 19 15.48Z" fill="#0D47A1"/>
<path d="M19 20.48H18C17.4477 20.48 17 20.9277 17 21.48V22.48C17 23.0323 17.4477 23.48 18 23.48H19C19.5523 23.48 20 23.0323 20 22.48V21.48C20 20.9277 19.5523 20.48 19 20.48Z" fill="#0D47A1"/>
<path d="M24 15.48H23C22.4477 15.48 22 15.9277 22 16.48V17.48C22 18.0323 22.4477 18.48 23 18.48H24C24.5523 18.48 25 18.0323 25 17.48V16.48C25 15.9277 24.5523 15.48 24 15.48Z" fill="#C2185B"/>
<path d="M24 20.48H23C22.4477 20.48 22 20.9277 22 21.48V22.48C22 23.0323 22.4477 23.48 23 23.48H24C24.5523 23.48 25 23.0323 25 22.48V21.48C25 20.9277 24.5523 20.48 24 20.48Z" fill="#0D47A1"/>
<path d="M5 6.47998C4.20435 6.47998 3.44129 6.79605 2.87868 7.35866C2.31607 7.92127 2 8.68433 2 9.47998V24.48C2 25.2756 2.31607 26.0387 2.87868 26.6013C3.44129 27.1639 4.20435 27.48 5 27.48H16V6.47998H5Z" fill="#C5CAE9"/>
<path d="M5 6.47998C4.20435 6.47998 3.44129 6.79605 2.87868 7.35866C2.31607 7.92127 2 8.68433 2 9.47998V11.48H3H16V6.47998H5Z" fill="#283593"/>
<path d="M11 8.47998C10.7348 8.47998 10.4804 8.37462 10.2929 8.18709C10.1054 7.99955 10 7.7452 10 7.47998V5.47998H8V7.47998C8 7.7452 7.89464 7.99955 7.70711 8.18709C7.51957 8.37462 7.26522 8.47998 7 8.47998C6.73478 8.47998 6.48043 8.37462 6.29289 8.18709C6.10536 7.99955 6 7.7452 6 7.47998V4.47998C6 4.21476 6.10536 3.96041 6.29289 3.77287C6.48043 3.58534 6.73478 3.47998 7 3.47998H11C11.2652 3.47998 11.5196 3.58534 11.7071 3.77287C11.8946 3.96041 12 4.21476 12 4.47998V7.47998C12 7.7452 11.8946 7.99955 11.7071 8.18709C11.5196 8.37462 11.2652 8.47998 11 8.47998Z" fill="#283593"/>
<path d="M9 20.48H8C7.44772 20.48 7 20.9277 7 21.48V22.48C7 23.0323 7.44772 23.48 8 23.48H9C9.55228 23.48 10 23.0323 10 22.48V21.48C10 20.9277 9.55228 20.48 9 20.48Z" fill="#EC407A"/>
<path d="M14 15.48H13C12.4477 15.48 12 15.9277 12 16.48V17.48C12 18.0323 12.4477 18.48 13 18.48H14C14.5523 18.48 15 18.0323 15 17.48V16.48C15 15.9277 14.5523 15.48 14 15.48Z" fill="#1565C0"/>
<path d="M14 20.48H13C12.4477 20.48 12 20.9277 12 21.48V22.48C12 23.0323 12.4477 23.48 13 23.48H14C14.5523 23.48 15 23.0323 15 22.48V21.48C15 20.9277 14.5523 20.48 14 20.48Z" fill="#1565C0"/>
<path d="M27 6.47998H26V4.47998C26 4.21476 25.8946 3.96041 25.7071 3.77287C25.5196 3.58534 25.2652 3.47998 25 3.47998H21C20.7348 3.47998 20.4804 3.58534 20.2929 3.77287C20.1054 3.96041 20 4.21476 20 4.47998V6.47998H12V4.47998C12 4.21476 11.8946 3.96041 11.7071 3.77287C11.5196 3.58534 11.2652 3.47998 11 3.47998H7C6.73478 3.47998 6.48043 3.58534 6.29289 3.77287C6.10536 3.96041 6 4.21476 6 4.47998V6.47998H5C4.20435 6.47998 3.44129 6.79605 2.87868 7.35866C2.31607 7.92127 2 8.68433 2 9.47998V24.48C2 25.2756 2.31607 26.0387 2.87868 26.6013C3.44129 27.1639 4.20435 27.48 5 27.48H27C27.7956 27.48 28.5587 27.1639 29.1213 26.6013C29.6839 26.0387 30 25.2756 30 24.48V9.47998C30 8.68433 29.6839 7.92127 29.1213 7.35866C28.5587 6.79605 27.7956 6.47998 27 6.47998ZM22 5.47998H24V6.47998H22V5.47998ZM8 5.47998H10V6.47998H8V5.47998ZM5 8.47998H27C27.2652 8.47998 27.5196 8.58534 27.7071 8.77287C27.8946 8.96041 28 9.21476 28 9.47998V11.48H4V9.47998C4 9.21476 4.10536 8.96041 4.29289 8.77287C4.48043 8.58534 4.73478 8.47998 5 8.47998ZM27 25.48H5C4.73478 25.48 4.48043 25.3746 4.29289 25.1871C4.10536 24.9996 4 24.7452 4 24.48V13.48H28V24.48C28 24.7452 27.8946 24.9996 27.7071 25.1871C27.5196 25.3746 27.2652 25.48 27 25.48Z" fill="#263238"/>
</svg>